<svg width="42" height="43" viewBox="0 0 42 43" fill="none" xmlns="http://www.w3.org/2000/svg">
<path d="M37.4677 35.3996L13.9108 41.6765C10.7355 42.4888 7.48623 40.6426 6.67392 37.4673L0.396999 13.9104C-0.415309 10.735 1.43084 7.48574 4.60623 6.67343L28.1631 0.396511C31.3385 -0.415797 34.5877 1.43035 35.4001 4.60574L41.677 28.1626C42.4893 31.2642 40.6431 34.5134 37.4677 35.3996Z" fill="#E1E4F4"/>
<path d="M23.8062 35.3994V28.6055C23.8062 27.7932 23.3631 26.9809 22.6246 26.6117L15.6831 22.624C14.7231 22.0332 13.4677 22.0332 12.5077 22.624L5.56618 26.6117C4.82772 27.0548 4.38464 27.7932 4.38464 28.6055V29.0486L6.67387 37.5409C6.82157 38.0578 6.96926 38.5009 7.1908 38.8701L12.5077 41.8978C12.9508 41.8978 13.4677 41.824 13.9108 41.6763L17.8985 40.6424L22.1816 38.1317C23.2154 37.5409 23.8062 36.507 23.8062 35.3994Z" fill="#57617F"/>
<path d="M12.5076 22.5503C13.4676 21.9595 14.723 21.9595 15.683 22.5503L22.6245 26.5379C23.363 26.981 23.806 27.7195 23.806 28.5318V35.3256C23.806 36.4333 23.2153 37.541 22.1814 38.0579L12.5076 22.5503Z" fill="#8698BF"/>
<path d="M14.1325 33.627C14.1325 33.1101 13.8371 32.667 13.4679 32.4455L5.64016 27.9409C5.12323 27.6455 4.45862 28.0147 4.45862 28.6055V29.0486L6.74785 37.5409C6.89555 38.0578 7.04324 38.5009 7.26478 38.8701L12.5817 41.8978C13.0248 41.8978 13.4679 41.824 13.9848 41.6763C14.1325 41.5286 14.2063 41.307 14.2063 41.0117V33.627H14.1325Z" fill="#57617F"/>
<path d="M5.5664 26.538L12.951 22.255C13.6156 21.8857 14.5018 21.8857 15.1664 22.255L22.551 26.538C23.0679 26.8334 23.0679 27.6457 22.551 27.9411L14.7233 32.4457C14.2802 32.6673 13.7633 32.6673 13.3202 32.4457L5.49255 27.9411C5.04948 27.6457 5.04948 26.8334 5.5664 26.538Z" fill="#BFC6F2"/>
<path d="M26.8341 3.71948L7.33872 9.84871L6.52641 15.3133L3.35102 13.4672L2.76025 19.5964L5.64025 21.2949L5.34487 23.2887L7.19102 22.2549L17.2341 28.0887L20.3356 23.4364L12.7295 19.0056L16.5695 16.7902C18.1203 15.9041 20.0403 15.9041 21.591 16.7902L31.5603 22.7718L35.4741 14.3533L26.8341 3.71948Z" fill="#2B2E3A"/>
<path d="M8.66764 19.1534C13.2461 10.4396 21.3692 5.71342 26.9076 8.59342C30.8215 10.6611 32.3723 15.978 31.2646 22.0334C31.1907 22.6242 31.7815 22.9934 32.2246 22.7719L36.36 20.4088C37.3938 19.818 38.28 19.0057 38.8707 17.9719L35.3261 4.60574C34.5138 1.43035 31.1907 -0.415797 28.0892 0.396511L4.53226 6.67343C1.35687 7.48574 -0.489284 10.8088 0.323024 13.9103L5.19687 32.1503C5.12303 28.3103 6.30456 23.658 8.66764 19.1534Z" fill="#F97A7A"/>
<path d="M19.671 19.8181L19.8925 19.4489L18.8587 18.8581C18.7848 18.7843 18.711 18.7104 18.5633 18.7104C16.8648 17.8243 14.2802 19.3012 12.8771 22.0335C11.4741 24.692 11.4002 27.6458 13.0248 28.532L14.3541 29.2704L14.6494 28.7535C16.2002 28.532 18.0464 27.2027 19.0802 25.2089C20.1879 23.2889 20.3356 21.1474 19.671 19.8181Z" fill="#2B2E3A"/>
<path d="M19.8923 19.449C18.1939 18.5628 15.6093 20.0397 14.2062 22.772C12.8031 25.5043 12.7292 28.4582 14.4277 29.3443C16.1262 30.2305 19.0062 28.7536 20.4093 26.0212C21.8123 23.2889 21.6647 20.3351 19.8923 19.449Z" fill="#57617F"/>
<path d="M20.1875 22.9198L18.8583 22.1813C17.9721 21.7382 16.7168 22.4767 16.0521 23.8059C15.3137 25.1352 15.3137 26.6121 16.126 27.0552L17.4552 27.7936L18.1198 26.6121C18.4891 26.3167 18.8583 25.8736 19.1537 25.3567C19.3752 24.9136 19.5229 24.3967 19.5967 23.9536L20.1875 22.9198Z" fill="#FFB75E"/>
<path d="M20.188 22.9196C19.3019 22.4765 18.0465 23.215 17.3819 24.5442C16.6434 25.8734 16.6434 27.3503 17.4557 27.7933C18.3419 28.2364 19.7449 27.498 20.4096 26.1687C21.0742 24.8395 21.0003 23.4365 20.188 22.9196Z" fill="#FFD385"/>
<path d="M19.1536 23.363C19.0059 23.2891 18.7843 23.4368 18.6366 23.6583C18.489 23.8799 18.489 24.1752 18.6366 24.2491C18.7843 24.3229 19.0797 24.1752 19.2274 23.9537C19.3013 23.7322 19.3013 23.4368 19.1536 23.363Z" fill="#57617F"/>
<path d="M19.1536 26.6117C19.0059 26.5379 18.7843 26.6856 18.6366 26.9071C18.489 27.1287 18.489 27.4241 18.6366 27.4979C18.7843 27.5718 19.0797 27.4241 19.2274 27.2025C19.3013 26.981 19.3013 26.6856 19.1536 26.6117Z" fill="#57617F"/>
<path d="M20.6309 24.2485C20.4832 24.1746 20.2616 24.3223 20.1139 24.5439C19.9663 24.7654 19.9663 25.0608 20.1139 25.1347C20.2616 25.2085 20.557 25.0608 20.7047 24.8393C20.8524 24.6177 20.7786 24.3223 20.6309 24.2485Z" fill="#57617F"/>
<path d="M17.7506 25.9474C17.6029 25.8736 17.3814 26.0213 17.2337 26.2428C17.086 26.4644 17.086 26.7598 17.2337 26.8336C17.3814 26.9075 17.6768 26.7598 17.8245 26.5382C17.9722 26.3167 17.8983 26.0213 17.7506 25.9474Z" fill="#57617F"/>
<path d="M14.1326 40.1257L15.7572 41.898C14.7972 42.4888 13.5418 42.4888 12.5818 41.898L11.4741 41.3073L14.1326 40.1257Z" fill="#57617F"/>
<path d="M22.6247 27.9409L14.7971 32.4455C14.354 32.667 14.1324 33.1101 14.1324 33.627V41.0855C14.1324 41.8978 14.9448 42.3408 15.6094 41.9716L23.1417 37.6147C23.5847 37.3932 23.8063 36.9501 23.8063 36.4332V28.6055C23.8063 28.0147 23.1417 27.6455 22.6247 27.9409Z" fill="#8698BF"/>
<path d="M17.8987 32.1497L16.0526 33.1835C15.831 33.3312 15.6833 33.5527 15.6833 33.7743V39.6819C15.6833 40.0512 16.0526 40.2727 16.348 40.0512L18.1941 39.0173C18.4157 38.8696 18.5633 38.6481 18.5633 38.4266V32.5189C18.6372 32.1497 18.1941 31.9281 17.8987 32.1497Z" fill="#57617F"/>
<path d="M21.8124 29.9346L19.9663 30.9684C19.7447 31.1161 19.597 31.3377 19.597 31.5592V37.4669C19.597 37.8361 19.9663 38.0577 20.2617 37.8361L22.1078 36.8023C22.3293 36.6546 22.477 36.433 22.477 36.2115V30.3038C22.5509 29.9346 22.1817 29.713 21.8124 29.9346Z" fill="#57617F"/>
</svg>
